<svg xmlns="http://www.w3.org/2000/svg" viewBox="0 0 51.42 8.4"><g id="Layer_2" data-name="Layer 2"><g id="Layer_1-2" data-name="Layer 1"><g style="opacity:0.5"><path d="M25.21,6.32a3,3,0,0,1,.12,1.13h.19a3.51,3.51,0,0,1,.11-1.13L27,3h1.06L26,8.23h-1L22.8,3h1.06Z" style="fill:#111"/><path d="M28.33,3h1V8.23h-1Z" style="fill:#111"/><path d="M29.77,5.56a2.61,2.61,0,0,1,2.61-2.77,2.55,2.55,0,0,1,2.53,2.72V6h-4A1.5,1.5,0,0,0,32.5,7.42a1.21,1.21,0,0,0,1.2-.7h1.11A2.29,2.29,0,0,1,32.59,8.4,2.67,2.67,0,0,1,29.77,5.56Zm4-.42A1.35,1.35,0,0,0,32.4,3.71a1.45,1.45,0,0,0-1.46,1.43Z" style="fill:#111"/><path d="M37,6.53a2.9,2.9,0,0,1,0,.78h.19a2.91,2.91,0,0,1,0-.78l1-3.58h1l1,3.58a2.91,2.91,0,0,1,0,.78h.19a3.38,3.38,0,0,1,0-.78l1-3.58h1L40.94,8.23H39.83l-1-3.88a2.84,2.84,0,0,1,0-.77h-.19a3.31,3.31,0,0,1,0,.77l-1,3.88H36.57L34.91,3h1Z" style="fill:#111"/><path d="M42.53,5.56a2.6,2.6,0,0,1,2.6-2.77,2.57,2.57,0,0,1,2.54,2.72V6h-4a1.51,1.51,0,0,0,1.58,1.46,1.22,1.22,0,0,0,1.2-.7h1.1A2.29,2.29,0,0,1,45.34,8.4,2.67,2.67,0,0,1,42.53,5.56Zm4-.42a1.35,1.35,0,0,0-1.38-1.43,1.45,1.45,0,0,0-1.46,1.43Z" style="fill:#111"/><path d="M51.42,2.79v1c-1.14,0-2.29.45-2.29,1.9V8.23h-1V3h1v.24a3.57,3.57,0,0,1-.29,1.11l.18.08a2.69,2.69,0,0,1,.49-1C50,2.88,50.45,2.79,51.42,2.79Z" style="fill:#111"/></g><path d="M1.82,8.4H.2A.2.2,0,0,1,0,8.2V.2A.2.2,0,0,1,.2,0H1.92a.2.2,0,0,1,.15.07l3.4,4.28a5.9,5.9,0,0,1,.67,1.57l.31-.1A5.6,5.6,0,0,1,6,4.17V.2A.2.2,0,0,1,6.2,0H7.84A.2.2,0,0,1,8,.2v8a.2.2,0,0,1-.2.2H6.1A.19.19,0,0,1,6,8.32L2.55,4a6,6,0,0,1-.67-1.56l-.31.11A5.33,5.33,0,0,1,2,4.23v4A.19.19,0,0,1,1.82,8.4Z" style="fill:#111"/><path d="M11,2.15V3.42a.2.2,0,0,0,.2.2h3a.2.2,0,0,1,.2.2V5.38a.2.2,0,0,1-.2.2h-3a.2.2,0,0,0-.2.2V8.2a.2.2,0,0,1-.2.2H9.13a.2.2,0,0,1-.2-.2V.2a.2.2,0,0,1,.2-.2h5.7a.2.2,0,0,1,.2.2V1.76a.2.2,0,0,1-.2.2H11.15A.19.19,0,0,0,11,2.15Z" style="fill:#111"/><path d="M17.82,8.2v-6a.19.19,0,0,0-.2-.19H15.93a.2.2,0,0,1-.2-.2V.2a.2.2,0,0,1,.2-.2h5.79a.2.2,0,0,1,.2.2V1.76a.2.2,0,0,1-.2.2H20a.19.19,0,0,0-.2.19v6a.19.19,0,0,1-.19.2H18A.2.2,0,0,1,17.82,8.2Z" style="fill:#111"/></g></g></svg>